# xmcd
#
# Track frame offsets:
#	150
#	42638
#	78369
#	119670
#	148260
#	170812
#	205708
#	242001
#	265091
#	308363
#
# Disc length: 4499 seconds
#
# Revision: 0
# Processed by: cddbd v1.5.2PL0 Copyright (c) Steve Scherf et al.
# Submitted via: audiograbber 1.83.01
#
DISCID=8d11910a
DTITLE=Grateful Dead - 93-12-13 San Diego Sports Arena, San Diego CA
DYEAR=1900
DGENRE=
TTITLE0=Feel Like A Stranger
TTITLE1=Ramble On Rose
TTITLE2=The Same Thing
TTITLE3=Brown Eyed Women
TTITLE4=Broken Arrow
TTITLE5=Easy Answers
TTITLE6=Mississippi Half-Step Uptown Toodeloo
TTITLE7=Lucy In The Sky With Diamonds
TTITLE8=Men Smart, Women Are Smarter
TTITLE9=Way To Go Home
EXTD=
EXTT0=
EXTT1=
EXTT2=
EXTT3=
EXTT4=
EXTT5=
EXTT6=
EXTT7=
EXTT8=
EXTT9=
PLAYORDER=
